<?xml version="1.0" standalone="no"?>
<!DOCTYPE svg PUBLIC "-//W3C//DTD SVG 20010904//EN"
 "http://www.w3.org/TR/2001/REC-SVG-20010904/DTD/svg10.dtd">
<svg version="1.0" xmlns="http://www.w3.org/2000/svg"
 width="300.000000pt" height="300.000000pt" viewBox="0 0 300.000000 300.000000"
 preserveAspectRatio="xMidYMid meet">
<metadata>
Created by potrace 1.10, written by Peter Selinger 2001-2011
</metadata>
<g transform="translate(0.000000,300.000000) scale(0.100000,-0.100000)"
fill="#ecedd4" stroke="none">
<path d="M1046 2905 c-34 -34 -61 -210 -52 -340 9 -152 58 -267 166 -390 34
-39 69 -86 80 -105 47 -91 53 -194 21 -354 -11 -55 -19 -102 -17 -104 2 -2 24
6 49 18 136 64 241 259 269 501 22 185 -20 370 -123 541 -81 135 -155 198
-268 232 -69 20 -105 20 -125 1z"/>
<path d="M857 2870 c-142 -45 -231 -164 -279 -370 -31 -138 -31 -323 1 -444
62 -239 179 -417 311 -473 55 -23 170 -29 207 -10 76 40 104 253 53 403 -24
67 -54 119 -129 218 -116 154 -154 319 -118 502 23 109 31 194 21 193 -5 0
-35 -8 -67 -19z"/>
<path d="M2237 1930 c-53 -21 -91 -47 -186 -129 -135 -117 -245 -293 -292
-466 -18 -65 -22 -110 -23 -240 -1 -156 0 -161 26 -212 52 -97 155 -171 222
-159 38 7 125 81 166 141 66 95 72 128 80 385 8 249 15 286 70 385 25 46 95
133 123 153 21 16 97 110 97 121 0 5 -23 15 -51 24 -68 22 -171 21 -232 -3z"/>
<path d="M2532 1775 c-124 -131 -179 -233 -202 -380 -9 -54 -8 -91 6 -185 15
-110 15 -123 0 -193 -22 -99 -69 -171 -176 -269 l-83 -76 64 -7 c130 -14 244
27 374 134 142 116 237 259 291 436 25 81 28 106 28 245 1 150 0 157 -28 217
-18 40 -48 81 -82 113 -77 73 -92 71 -192 -35z"/>
<path d="M770 1209 c-159 -44 -308 -130 -438 -253 -93 -88 -143 -155 -190
-254 -31 -65 -37 -88 -40 -164 -4 -84 -3 -92 28 -154 40 -82 64 -98 133 -91
120 12 251 83 317 171 21 28 69 112 106 186 59 117 79 145 144 210 85 85 133
112 304 169 65 22 121 42 124 46 11 11 -81 93 -136 121 -50 24 -71 28 -167 31
-88 2 -125 -1 -185 -18z"/>
<path d="M1208 961 c-97 -32 -218 -94 -279 -143 -61 -49 -133 -151 -164 -232
-90 -234 -143 -285 -372 -355 -57 -18 -103 -35 -103 -39 0 -16 108 -72 170
-88 82 -21 223 -14 328 16 381 108 680 498 596 779 -11 39 -23 57 -47 71 -18
11 -34 20 -37 20 -3 -1 -44 -13 -92 -29z"/>
</g>
</svg>
